# xmcd
# 
# Track frame offsets:
#     150
#     31657
#     67266
#     94293
#     116891
#     150489
#     180601
#     199995
#     230443
# 
# Disc length: 3268
# 
# Revision: 0
# Processed by: cddbd v1.5.2PL0 Copyright (c) Steve Scherf et al.
# Submitted via: fre:ac v1.0.31
# 
DISCID=790cc209
DTITLE=Various Artist - Uptown Downtown
DYEAR=2017
DGENRE=Jazz
TTITLE0=Bill Charlap Trio - Curtains
TTITLE1=Bill Charlap Trio - Spring Can Really Hang You Up the Most
TTITLE2=Bill Charlap Trio - Uptown Downtown
TTITLE3=Bill Charlap Trio - The One I Love Belongs to Somebody Else
TTITLE4=Bill Charlap Trio - I'm All Smiles
TTITLE5=Bill Charlap Trio - There's a Small Hotel
TTITLE6=Bill Charlap Trio - Satellite
TTITLE7=Bill Charlap Trio - Bon Ami
TTITLE8=Bill Charlap Trio - Sophisticated Lady
EXTD=
EXTT0=
EXTT1=
EXTT2=
EXTT3=
EXTT4=
EXTT5=
EXTT6=
EXTT7=
EXTT8=
PLAYORDER=
